<svg class="diagram-root" style="background: #f5f6f6" xmlns="http://www.w3.org/2000/svg" xmlns:xlink="http://www.w3.org/1999/xlink"><style>.diagram-root { font-family: "Helvetica Neue", sans-serif; font-size: 12px; } .t { overflow: visible; } .t-bg { y: 40; fill: #fff;   } .th { fill: #005aa0;   } .tht { fill: #fff; font-size: 14px;  } .tf { fill: #323c46; overflow: visible; } .tf.pk { fill: #005aa0; font-weight: bold; } .tf.fk { font-weight: bold; } .ty { fill: #adb1b5; font-weight: normal; text-anchor: end; } .r { fill: transparent; stroke: #c3c3c3; stroke-width: 1; } .l { stroke: 1; } .i { fill: #c2c7ce; stroke: #c2c7ce; } .i.ix { fill: #afb3b6; stroke: #000; } .fa { fill: transparent; overflow: visible; } .fa .bg.hover { fill: #f7f7f7; } .c { cy: 12; r: 4; stroke: #d2d2dc; fill: #d2d2dc; } .hr { fill: transparent; stroke: #323c46; stroke-opacity: 0.035; stroke-width: 13; } .dc { stroke: #fa5a3c; fill: #fa5a3c; } .x { stroke: white; stroke-width: 1; } .hl .th { fill: #1b9bff; } .hl .tht {  } .fhl .bg { fill: #e7f4ff; } .fhls .bg {  } .r.hl { stroke: #1b9bff; } .dim { opacity: 0.25; }</style><g class="drawing-wrapper" transform="translate(-17, 20) scale(1,1)"><g class="rs"><path d="M 533 67 m -1, 0 a 1,1 0 1,0 2,0 a 1,1 0 1,0 -2,0 M 533 67 m -0.5, 0 a 0.5,0.5 0 1,0 1,0 a 0.5,0.5 0 1,0 -1,0  M533 67 L533 67 545 67 M 533 73 m -1, 0 a 1,1 0 1,0 2,0 a 1,1 0 1,0 -2,0 M 533 73 m -0.5, 0 a 0.5,0.5 0 1,0 1,0 a 0.5,0.5 0 1,0 -1,0  M533 73 L533 73 540 67 533 61 M 533 61 m -1, 0 a 1,1 0 1,0 2,0 a 1,1 0 1,0 -2,0 M 533 61 m -0.5, 0 a 0.5,0.5 0 1,0 1,0 a 0.5,0.5 0 1,0 -1,0  M545 67 Q 565.5 67, 586 121.5 T 627 176 M 639 176 m -1, 0 a 1,1 0 1,0 2,0 a 1,1 0 1,0 -2,0 M 639 176 m -0.5, 0 a 0.5,0.5 0 1,0 1,0 a 0.5,0.5 0 1,0 -1,0  M639 176 L639 176 627 176 M 639 182 m -1, 0 a 1,1 0 1,0 2,0 a 1,1 0 1,0 -2,0 M 639 182 m -0.5, 0 a 0.5,0.5 0 1,0 1,0 a 0.5,0.5 0 1,0 -1,0  M639 182 L639 182 632 176 639 170 M 639 170 m -1, 0 a 1,1 0 1,0 2,0 a 1,1 0 1,0 -2,0 M 639 170 m -0.5, 0 a 0.5,0.5 0 1,0 1,0 a 0.5,0.5 0 1,0 -1,0 " id="h1139284389" class="r"></path><path d="M 269 92 m -1, 0 a 1,1 0 1,0 2,0 a 1,1 0 1,0 -2,0 M 269 92 m -0.5, 0 a 0.5,0.5 0 1,0 1,0 a 0.5,0.5 0 1,0 -1,0  M269 92 L269 92 257 92 M 269 98 m -1, 0 a 1,1 0 1,0 2,0 a 1,1 0 1,0 -2,0 M 269 98 m -0.5, 0 a 0.5,0.5 0 1,0 1,0 a 0.5,0.5 0 1,0 -1,0  M269 98 L269 98 262 92 269 86 M 269 86 m -1, 0 a 1,1 0 1,0 2,0 a 1,1 0 1,0 -2,0 M 269 86 m -0.5, 0 a 0.5,0.5 0 1,0 1,0 a 0.5,0.5 0 1,0 -1,0  M257 92 Q 241 92, 225 129.5 T 193 167 M 181 167 m -1, 0 a 1,1 0 1,0 2,0 a 1,1 0 1,0 -2,0 M 181 167 m -0.5, 0 a 0.5,0.5 0 1,0 1,0 a 0.5,0.5 0 1,0 -1,0  M181 167 L181 167 193 167 M 181 173 m -1, 0 a 1,1 0 1,0 2,0 a 1,1 0 1,0 -2,0 M 181 173 m -0.5, 0 a 0.5,0.5 0 1,0 1,0 a 0.5,0.5 0 1,0 -1,0  M181 173 L181 173 188 167 181 161 M 181 161 m -1, 0 a 1,1 0 1,0 2,0 a 1,1 0 1,0 -2,0 M 181 161 m -0.5, 0 a 0.5,0.5 0 1,0 1,0 a 0.5,0.5 0 1,0 -1,0 " id="h1607168654" class="r"></path><path d="M 268 253 m -1, 0 a 1,1 0 1,0 2,0 a 1,1 0 1,0 -2,0 M 268 253 m -0.5, 0 a 0.5,0.5 0 1,0 1,0 a 0.5,0.5 0 1,0 -1,0  M268 253 L268 253 256 253 M 268 259 m -1, 0 a 1,1 0 1,0 2,0 a 1,1 0 1,0 -2,0 M 268 259 m -0.5, 0 a 0.5,0.5 0 1,0 1,0 a 0.5,0.5 0 1,0 -1,0  M268 259 L268 259 261 253 268 247 M 268 247 m -1, 0 a 1,1 0 1,0 2,0 a 1,1 0 1,0 -2,0 M 268 247 m -0.5, 0 a 0.5,0.5 0 1,0 1,0 a 0.5,0.5 0 1,0 -1,0  M256 253 Q 240.25 253, 224.5 210 T 193 167 M 181 167 m -1, 0 a 1,1 0 1,0 2,0 a 1,1 0 1,0 -2,0 M 181 167 m -0.5, 0 a 0.5,0.5 0 1,0 1,0 a 0.5,0.5 0 1,0 -1,0  M181 167 L181 167 193 167 M 181 173 m -1, 0 a 1,1 0 1,0 2,0 a 1,1 0 1,0 -2,0 M 181 173 m -0.5, 0 a 0.5,0.5 0 1,0 1,0 a 0.5,0.5 0 1,0 -1,0  M181 173 L181 173 188 167 181 161 M 181 161 m -1, 0 a 1,1 0 1,0 2,0 a 1,1 0 1,0 -2,0 M 181 161 m -0.5, 0 a 0.5,0.5 0 1,0 1,0 a 0.5,0.5 0 1,0 -1,0 " id="h1397587031" class="r"></path><path d="M 532 278 m -1, 0 a 1,1 0 1,0 2,0 a 1,1 0 1,0 -2,0 M 532 278 m -0.5, 0 a 0.5,0.5 0 1,0 1,0 a 0.5,0.5 0 1,0 -1,0  M532 278 L532 278 544 278 M 532 284 m -1, 0 a 1,1 0 1,0 2,0 a 1,1 0 1,0 -2,0 M 532 284 m -0.5, 0 a 0.5,0.5 0 1,0 1,0 a 0.5,0.5 0 1,0 -1,0  M532 284 L532 284 539 278 532 272 M 532 272 m -1, 0 a 1,1 0 1,0 2,0 a 1,1 0 1,0 -2,0 M 532 272 m -0.5, 0 a 0.5,0.5 0 1,0 1,0 a 0.5,0.5 0 1,0 -1,0  M544 278 Q 564.75 278, 585.5 227 T 627 176 M 639 176 m -1, 0 a 1,1 0 1,0 2,0 a 1,1 0 1,0 -2,0 M 639 176 m -0.5, 0 a 0.5,0.5 0 1,0 1,0 a 0.5,0.5 0 1,0 -1,0  M639 176 L639 176 627 176 M 639 182 m -1, 0 a 1,1 0 1,0 2,0 a 1,1 0 1,0 -2,0 M 639 182 m -0.5, 0 a 0.5,0.5 0 1,0 1,0 a 0.5,0.5 0 1,0 -1,0  M639 182 L639 182 632 176 639 170 M 639 170 m -1, 0 a 1,1 0 1,0 2,0 a 1,1 0 1,0 -2,0 M 639 170 m -0.5, 0 a 0.5,0.5 0 1,0 1,0 a 0.5,0.5 0 1,0 -1,0 " id="h2286254435" class="r"></path><path d="M 784 201 m -1, 0 a 1,1 0 1,0 2,0 a 1,1 0 1,0 -2,0 M 784 201 m -0.5, 0 a 0.5,0.5 0 1,0 1,0 a 0.5,0.5 0 1,0 -1,0  M784 201 L784 201 796 201 M 784 207 m -1, 0 a 1,1 0 1,0 2,0 a 1,1 0 1,0 -2,0 M 784 207 m -0.5, 0 a 0.5,0.5 0 1,0 1,0 a 0.5,0.5 0 1,0 -1,0  M784 207 L784 207 791 201 784 195 M 784 195 m -1, 0 a 1,1 0 1,0 2,0 a 1,1 0 1,0 -2,0 M 784 195 m -0.5, 0 a 0.5,0.5 0 1,0 1,0 a 0.5,0.5 0 1,0 -1,0  M796 201 Q 816 201, 836 233.5 T 876 266 M 888 266 m -1, 0 a 1,1 0 1,0 2,0 a 1,1 0 1,0 -2,0 M 888 266 m -0.5, 0 a 0.5,0.5 0 1,0 1,0 a 0.5,0.5 0 1,0 -1,0  M888 266 L888 266 876 266 M882 272 L882 272 882 260" id="h1537058300" class="r"></path><path d="M 887 113 m -1, 0 a 1,1 0 1,0 2,0 a 1,1 0 1,0 -2,0 M 887 113 m -0.5, 0 a 0.5,0.5 0 1,0 1,0 a 0.5,0.5 0 1,0 -1,0  M887 113 L887 113 875 113 M881 119 L881 119 881 107 M875 113 Q 855.25 113, 835.5 144.5 T 796 176 M 784 176 m -1, 0 a 1,1 0 1,0 2,0 a 1,1 0 1,0 -2,0 M 784 176 m -0.5, 0 a 0.5,0.5 0 1,0 1,0 a 0.5,0.5 0 1,0 -1,0  M784 176 L784 176 796 176 M790 182 L790 182 790 170" id="h3177548053" class="r"></path></g><g class="hrs"></g><g class="ts"><svg width="264" height="125" x="269" y="10" id="h1090417462" class="t"><rect height="40" width="264" class="th"></rect><text x="13" y="25" class="tht">dept_emp</text><rect height="85" width="264" class="t-bg" y="40"></rect><text x="13" y="61" class="tf fk">emp_no<tspan x="251" class="ty">int</tspan></text><text x="13" y="86" class="tf fk">dept_no<tspan x="251" class="ty">string</tspan></text><text x="13" y="111" class="tf pk">compositeKey(dept_no,emp_no)<tspan x="251" class="ty">key</tspan></text><path d="M7,14A2,2 0 0,1 5,12A2,2 0 0,1 7,10A2,2 0 0,1 9,12A2,2 0 0,1 7,14M12.65,10C11.83,7.67 9.61,6 7, 6A6, 6 0 0, 0 1, 12A6, 6 0 0, 0 7, 18C9.61, 18 11.83, 16.33 12.65, 14H17V18H21V14H23V10H12.65Z" class="i pk" transform="translate(213, 98) scale(0.65)"></path></svg><svg width="264" height="125" x="268" y="196" id="h1676682957" class="t"><rect height="40" width="264" class="th"></rect><text x="13" y="25" class="tht">dept_manager</text><rect height="85" width="264" class="t-bg" y="40"></rect><text x="13" y="61" class="tf fk">dept_no<tspan x="251" class="ty">string</tspan></text><text x="13" y="86" class="tf fk">emp_no<tspan x="251" class="ty">int</tspan></text><text x="13" y="111" class="tf pk">compositeKey(dept_no,emp_no)<tspan x="251" class="ty">key</tspan></text><path d="M7,14A2,2 0 0,1 5,12A2,2 0 0,1 7,10A2,2 0 0,1 9,12A2,2 0 0,1 7,14M12.65,10C11.83,7.67 9.61,6 7, 6A6, 6 0 0, 0 1, 12A6, 6 0 0, 0 7, 18C9.61, 18 11.83, 16.33 12.65, 14H17V18H21V14H23V10H12.65Z" class="i pk" transform="translate(213, 98) scale(0.65)"></path></svg><svg width="142" height="100" x="39" y="110" id="h475896179" class="t"><rect height="40" width="142" class="th"></rect><text x="13" y="25" class="tht">departments</text><rect height="60" width="142" class="t-bg" y="40"></rect><text x="13" y="61" class="tf pk">dept_no<tspan x="129" class="ty">string</tspan></text><path d="M7,14A2,2 0 0,1 5,12A2,2 0 0,1 7,10A2,2 0 0,1 9,12A2,2 0 0,1 7,14M12.65,10C11.83,7.67 9.61,6 7, 6A6, 6 0 0, 0 1, 12A6, 6 0 0, 0 7, 18C9.61, 18 11.83, 16.33 12.65, 14H17V18H21V14H23V10H12.65Z" class="i pk" transform="translate(78, 48) scale(0.65)"></path><text x="13" y="86" class="tf">dept_name<tspan x="129" class="ty">string</tspan></text></svg><svg width="145" height="225" x="639" y="119" id="h1639608377" class="t"><rect height="40" width="145" class="th"></rect><text x="13" y="25" class="tht">employees</text><rect height="185" width="145" class="t-bg" y="40"></rect><text x="13" y="61" class="tf pk">emp_no<tspan x="132" class="ty">int</tspan></text><path d="M7,14A2,2 0 0,1 5,12A2,2 0 0,1 7,10A2,2 0 0,1 9,12A2,2 0 0,1 7,14M12.65,10C11.83,7.67 9.61,6 7, 6A6, 6 0 0, 0 1, 12A6, 6 0 0, 0 7, 18C9.61, 18 11.83, 16.33 12.65, 14H17V18H21V14H23V10H12.65Z" class="i pk" transform="translate(99, 48) scale(0.65)"></path><text x="13" y="86" class="tf fk">emp_title_id<tspan x="132" class="ty">string</tspan></text><text x="13" y="111" class="tf">birth_date<tspan x="132" class="ty">date</tspan></text><text x="13" y="136" class="tf">first_name<tspan x="132" class="ty">string</tspan></text><text x="13" y="161" class="tf">last_name<tspan x="132" class="ty">string</tspan></text><text x="13" y="186" class="tf">sex<tspan x="132" class="ty">char</tspan></text><text x="13" y="211" class="tf">hire_date<tspan x="132" class="ty">date</tspan></text></svg><svg width="133" height="100" x="888" y="209" id="h311790747" class="t"><rect height="40" width="133" class="th"></rect><text x="13" y="25" class="tht">titles</text><rect height="60" width="133" class="t-bg" y="40"></rect><text x="13" y="61" class="tf pk">title_id<tspan x="120" class="ty">string</tspan></text><path d="M7,14A2,2 0 0,1 5,12A2,2 0 0,1 7,10A2,2 0 0,1 9,12A2,2 0 0,1 7,14M12.65,10C11.83,7.67 9.61,6 7, 6A6, 6 0 0, 0 1, 12A6, 6 0 0, 0 7, 18C9.61, 18 11.83, 16.33 12.65, 14H17V18H21V14H23V10H12.65Z" class="i pk" transform="translate(69, 48) scale(0.65)"></path><text x="13" y="86" class="tf">title<tspan x="120" class="ty">string</tspan></text></svg><svg width="252" height="125" x="887" y="56" id="h2472833127" class="t"><rect height="40" width="252" class="th"></rect><text x="13" y="25" class="tht">salaries</text><rect height="85" width="252" class="t-bg" y="40"></rect><text x="13" y="61" class="tf fk">emp_no<tspan x="239" class="ty">int</tspan></text><text x="13" y="86" class="tf">salary<tspan x="239" class="ty">int</tspan></text><text x="13" y="111" class="tf pk">compositeKey(emp_no,salary)<tspan x="239" class="ty">key</tspan></text><path d="M7,14A2,2 0 0,1 5,12A2,2 0 0,1 7,10A2,2 0 0,1 9,12A2,2 0 0,1 7,14M12.65,10C11.83,7.67 9.61,6 7, 6A6, 6 0 0, 0 1, 12A6, 6 0 0, 0 7, 18C9.61, 18 11.83, 16.33 12.65, 14H17V18H21V14H23V10H12.65Z" class="i pk" transform="translate(201, 98) scale(0.65)"></path></svg></g></g><text class="qdbd-link" x="10" y="20">www.quickdatabasediagrams.com</text></svg>